<svg xmlns="http://www.w3.org/2000/svg" viewBox="0 0 640 170" role="img" aria-labelledby="title desc">
  <title id="title">Conecta21</title>
  <desc id="desc">Gestão de chamados e atendimento</desc>
  <defs>
    <linearGradient id="orb" x1="0" y1="0" x2="1" y2="1">
      <stop offset="0" stop-color="#13a9ff"/><stop offset=".58" stop-color="#0878e8"/><stop offset="1" stop-color="#0750a8"/>
    </linearGradient>
    <filter id="shadow" x="-25%" y="-25%" width="150%" height="160%">
      <feGaussianBlur in="SourceAlpha" stdDeviation="3"/><feOffset dy="3"/><feComponentTransfer><feFuncA type="linear" slope=".25"/></feComponentTransfer><feMerge><feMergeNode/><feMergeNode in="SourceGraphic"/></feMerge>
    </filter>
    <marker id="arrow" markerWidth="9" markerHeight="9" refX="6" refY="4.5" orient="auto"><path d="M0 0 9 4.5 0 9 2.2 4.5Z" fill="#fff"/></marker>
  </defs>
  <g filter="url(#shadow)">
    <path d="M75 13a66 66 0 0 1 66 66c0 34-25 61-58 66l-24 18 5-20A66 66 0 0 1 75 13Z" fill="url(#orb)"/>
    <path d="M31 77c8-32 34-54 65-55 21-1 40 7 53 22" fill="none" stroke="#fff" stroke-width="5" stroke-linecap="round"/>
    <path d="M25 91c21 30 49 37 72 18 12-10 24-31 41-54" fill="none" stroke="#fff" stroke-width="5" stroke-linecap="round" marker-end="url(#arrow)"/>
    <path d="M39 115c22 19 44 20 62 8" fill="none" stroke="#bfe9ff" stroke-width="4" stroke-linecap="round"/>
    <circle cx="28" cy="83" r="6" fill="#fff"/><circle cx="76" cy="65" r="6" fill="#fff"/><circle cx="126" cy="95" r="6" fill="#fff"/>
    <circle cx="127" cy="23" r="5" fill="#0878e8" stroke="#fff" stroke-width="2"/>
  </g>
  <text x="158" y="94" font-family="Arial, Helvetica, sans-serif" font-size="77" font-weight="900" letter-spacing="-4" fill="#fff">conecta</text>
  <text x="486" y="94" font-family="Arial, Helvetica, sans-serif" font-size="79" font-weight="900" letter-spacing="-5" fill="#0750a8" stroke="#fff" stroke-width="3" paint-order="stroke">21</text>
  <text x="162" y="137" font-family="Arial, Helvetica, sans-serif" font-size="19" font-weight="800" letter-spacing="1.35" fill="#13b5ff">GESTÃO DE CHAMADOS &amp; ATENDIMENTO</text>
</svg>
